2.6Hz3min_grf.mot
version=1
nRows=17
nColumns 19
inDegrees=yes
endheader
time	1_ground_force_vx	1_ground_force_vy	1_ground_force_vz	1_ground_force_px	1_ground_force_py	1_ground_force_pz	1_ground_torque_x	1_ground_torque_y	1_ground_torque_z	2_ground_force_vx	2_ground_force_vy	2_ground_force_vz	2_ground_force_px	2_ground_force_py	2_ground_force_pz	2_ground_torque_x	2_ground_torque_y	2_ground_torque_z
            1.253500	            6.056838	           14.408267	            3.348444	           -0.212777	            0.006100	           -0.375854	            0.032602	            0.077555	            0.018023	            0.097646	           -1.104217	           -0.097838	           -0.232311	            0.006130	           -0.833667	            0.018608	            0.038215	           -0.094124
            1.254000	            6.469617	           15.849686	            3.537028	           -0.212830	            0.006113	           -0.378701	            0.011948	            0.029270	            0.006532	            0.099661	           -1.656829	           -0.052881	           -0.232311	            0.006130	           -0.833667	           -0.018802	            0.000067	           -0.037692
            1.254500	            7.799412	           20.174353	            4.010838	           -0.211380	            0.006073	           -0.369301	           -0.033404	           -0.086406	           -0.017178	            0.188708	           -0.367453	           -0.048322	           -0.232311	            0.006130	           -0.833667	            0.150249	            0.009995	           -0.000030
            1.255000	            8.535141	           21.612295	            5.024032	           -0.209104	            0.006077	           -0.370253	           -0.017521	           -0.044367	           -0.010314	            0.428878	           -2.023440	           -0.195119	           -0.232311	            0.006130	           -0.833667	           -0.037801	            0.065966	            0.019102
            1.255500	            9.501550	           22.507125	            6.584608	           -0.217190	            0.006078	           -0.370853	            0.004741	            0.011231	            0.003286	            0.001891	           -0.551608	           -0.236612	           -0.232311	            0.006130	           -0.833667	           -0.056449	            0.018904	           -0.056459
            1.256000	            9.318727	           24.488439	            6.960413	           -0.222945	            0.006094	           -0.374740	            0.039396	            0.103529	            0.029426	            0.237531	           -0.919561	           -0.097241	           -0.232311	            0.006130	           -0.833667	           -0.000076	            0.018973	           -0.018783
            1.256500	            9.272312	           25.750879	            6.828370	           -0.221434	            0.006111	           -0.378625	            0.094632	            0.262809	            0.069689	            0.188729	           -0.367620	           -0.001394	           -0.232311	            0.006130	           -0.833667	           -0.113002	            0.075349	           -0.037383
            1.257000	            8.811765	           27.376328	            6.102770	           -0.217521	            0.006111	           -0.378488	            0.079641	            0.247428	            0.055157	            0.372038	            0.738783	           -0.232172	           -0.232311	            0.006130	           -0.833667	           -0.112986	            0.084398	            0.075752
            1.257500	            7.708272	           31.526551	            5.114449	           -0.223527	            0.006064	           -0.367904	            0.000694	            0.002840	            0.000461	            0.651143	            1.292243	           -0.230320	           -0.232311	            0.006130	           -0.833667	           -0.206970	            0.075346	           -0.131594
            1.258000	            7.156458	           34.592927	            4.670395	           -0.223136	            0.006079	           -0.371221	           -0.046122	           -0.222943	           -0.030100	            0.557985	            1.108761	           -0.512506	           -0.232311	            0.006130	           -0.833667	           -0.169367	            0.084397	            0.019226
            1.258500	            7.478639	           36.933494	            5.367486	           -0.220323	            0.006105	           -0.377253	           -0.044654	           -0.220523	           -0.032048	            0.602800	            1.661710	           -0.604411	           -0.232311	            0.006130	           -0.833667	           -0.263057	            0.036256	            0.169899
            1.259000	            8.169499	           39.270789	            6.843217	           -0.222403	            0.006086	           -0.372801	           -0.031042	           -0.149220	           -0.026003	            0.174607	            3.500834	           -0.363020	           -0.232311	            0.006130	           -0.833667	           -0.338249	            0.045572	            0.132264
            1.259500	            8.493992	           40.165691	            8.359530	           -0.222260	            0.006075	           -0.370317	            0.010868	            0.051393	            0.010696	            0.452904	            4.239614	           -0.689008	           -0.232311	            0.006130	           -0.833667	           -0.563776	            0.073116	            0.132461
            1.260000	            8.540758	           41.966194	            8.871561	           -0.223916	            0.006081	           -0.371707	            0.042233	            0.207519	            0.043869	            0.776722	            5.346859	           -1.013702	           -0.232311	            0.006130	           -0.833667	           -0.639326	            0.186277	            0.132898
            1.260500	            7.622122	           43.590964	            8.284667	           -0.220770	            0.006095	           -0.374971	            0.036730	            0.210061	            0.039923	            1.564427	            7.744500	           -1.240140	           -0.232311	            0.006130	           -0.833667	           -0.959026	            0.270535	            0.039086
            1.261000	            6.106081	           45.037909	            7.102351	           -0.220779	            0.006093	           -0.374433	           -0.004838	           -0.035681	           -0.005627	            2.585053	           10.511283	           -1.465363	           -0.212498	            0.005793	           -0.719122	            0.000154	            0.000626	           -0.000087
            1.261500	            4.911836	           45.942743	            6.237912	           -0.223721	            0.006101	           -0.376447	           -0.036829	           -0.344478	           -0.046772	            3.137906	           13.091724	           -1.550259	           -0.216803	            0.005774	           -0.718098	           -0.010347	           -0.043167	            0.005112
